<svg width="165.2px" height="336.8px" xmlns="http://www.w3.org/2000/svg" viewBox="167.4 -93.4 165.2 336.8" style="background: rgba(0, 0, 0, 0);" preserveAspectRatio="xMidYMid"><defs><filter id="editing-extrusion" x="-100%" y="-100%" width="300%" height="300%"><feFlood result="color1" flood-color="#ffcb47"></feFlood><feConvolveMatrix order="4,4" divisor="1" kernelMatrix="1 0 0 0 0 1 0 0 0 0 1 0 0 0 0 1" in="SourceAlpha" result="extrude"></feConvolveMatrix><feComposite in="color1" in2="extrude" result="comp-extrude" operator="in"></feComposite><feOffset dx="2" dy="2" in="comp-extrude" result="offset-extrude"></feOffset><feMerge><feMergeNode in="offset-extrude"></feMergeNode><feMergeNode in="SourceGraphic"></feMergeNode></feMerge></filter></defs><g filter="url(#editing-extrusion)"><g transform="translate(198.0174697637558, 130)"><path d="M66-56.20L66-56.20L66-56.20Q73.20-69 73.20-82L73.20-82L73.20-82Q73.20-90.60 67-90.60L67-90.60L67-90.60Q62.20-90.60 57.20-82.40L57.20-82.40L57.20-82.40Q52-74.20 50.40-63.60L50.40-63.60L40 0L-1.40 4L19-102L52-106L48.40-85.80L48.40-85.80Q58.20-106 80.20-106L80.20-106L80.20-106Q91.80-106 98.10-100L98.10-100L98.10-100Q104.40-94 104.40-81.70L104.40-81.70L104.40-81.70Q104.40-69.40 96.30-61.60L96.30-61.60L96.30-61.60Q88.20-53.80 74.40-53.80L74.40-53.80L74.40-53.80Q68.40-53.80 66-56.20Z" fill="#ff9100"></path></g></g><style>text {
  font-size: 64px;
  font-family: Arial Black;
  dominant-baseline: central;
  text-anchor: middle;
}</style></svg>